<?xml version="1.0" encoding="UTF-8" standalone="no"?>
<svg
   width="720"
   height="900"
   viewBox="0 0 720 900"
   fill="none"
   version="1.1"
   id="svg65"
   xmlns="http://www.w3.org/2000/svg"
   xmlns:svg="http://www.w3.org/2000/svg">
  <g
     clip-path="url(#clip0_412_486)"
     id="g53"
     transform="translate(-2.9101563e-5)">
    <rect
       width="720"
       height="900"
       fill="url(#paint0_linear_412_486)"
       id="rect3"
       style="fill:url(#paint0_linear_412_486)"
       x="0"
       y="0" />
    <mask
       id="mask0_412_486"
       maskUnits="userSpaceOnUse"
       x="689"
       y="-749"
       width="1237"
       height="1517">
      <g
         opacity="0.6"
         id="g36">
        <path
           d="m 1438.63,532.343 0.15,-0.543 377.58,101.169 -0.14,0.542 z"
           fill="#d1d1d1"
           id="path3" />
        <path
           d="m 1443.23,767.351 -101.17,-377.585 0.55,-0.146 101.16,377.585 z"
           fill="#d1d1d1"
           id="path4" />
        <path
           d="m 1155.79,238.739 -79.62,-296.9248 0.48,-0.1294 79.63,296.9252 z"
           fill="#d1d1d1"
           id="path5" />
        <path
           d="m 1140.47,277.925 0.13,-0.468 277.07,74.236 -0.12,0.473 z"
           fill="#d1d1d1"
           id="path6" />
        <path
           d="m 1230.07,-133.402 0.12,-0.415 220.46,59.0694 -0.11,0.4144 z"
           fill="#d1d1d1"
           id="path7" />
        <path
           d="m 1116.45,-19.7997 -0.15,-0.0446 -62.83,-16.832 -46.1,46.10268 0.04,0.15486 16.84,62.82356 0.15,0.0439 62.82,16.8319 46.11,-46.1026 -0.05,-0.1542 z m -62.81,-16.2529 62.36,16.7054 16.7,62.3548 L 1087.06,88.652 1024.7,71.9473 1008,9.59181 Z"
           fill="#d1d1d1"
           id="path8" />
        <path
           d="m 1076.87,-59.6713 -0.42,-0.111 -63.09,-16.9035 -46.48,46.4838 0.111,0.4187 16.904,63.0838 63.505,17.0137 46.48,-46.48383 -0.11,-0.41857 z m -63.06,-15.3421 61.83,16.5668 16.57,61.8308 -45.27,45.2633 -61.826,-16.5668 -16.567,-61.8308 z"
           fill="#d1d1d1"
           id="path9" />
        <path
           d="m 1126.84,128.711 -0.15,-0.044 -62.83,-16.832 -46.1,46.103 0.05,0.154 16.83,62.824 62.98,16.876 46.1,-46.102 -0.04,-0.155 z m -62.8,-16.252 62.35,16.705 16.71,62.354 -45.65,45.645 -62.35,-16.705 -16.71,-62.355 z"
           fill="#d1d1d1"
           id="path10" />
        <path
           d="m 1110.06,66.038 -0.15,-0.0438 -62.83,-16.832 -46.1,46.1027 0.04,0.1541 16.83,62.824 62.98,16.876 46.11,-46.103 -0.05,-0.154 z m -62.81,-16.2415 62.36,16.7047 16.7,62.3558 -45.64,45.644 -62.36,-16.705 -16.7,-62.3551 z"
           fill="#d1d1d1"
           id="path11" />
        <path
           d="m 1013.81,-76.0734 -0.15,-0.0445 -62.827,-16.832 -46.103,46.1027 0.044,0.1548 16.832,62.8244 62.978,16.875 46.106,-46.1026 -0.05,-0.1541 z m -62.812,-16.2472 62.352,16.7111 16.71,62.3485 -45.647,45.6444 -62.355,-16.704 -16.704,-62.3555 z"
           fill="#d1d1d1"
           id="path12" />
        <path
           d="m 967.935,-30.1969 -0.155,-0.0446 -62.824,-16.832 -46.102,46.102686 0.044,0.154852 16.832,62.823862 62.978,16.8755 46.102,-46.1026 -0.043,-0.1541 z m -62.808,-16.2529 62.355,16.7054 16.705,62.3541 -45.645,45.6444 -62.354,-16.7042 -16.705,-62.355267 z"
           fill="#d1d1d1"
           id="path13" />
        <path
           d="m 1442.07,-107.055 -0.16,-0.044 -62.82,-16.831 -46.11,46.1022 0.05,0.1549 16.83,62.8236 0.15,0.0438 62.83,16.83203 46.1,-46.10263 -0.04,-0.1542 z m -62.82,-16.246 62.35,16.71 16.71,62.3494 -45.64,45.64445 -62.36,-16.70475 -16.7,-62.3547 z"
           fill="#d1d1d1"
           id="path14" />
        <path
           d="m 1521.52,-27.5978 -0.15,-0.0438 -62.83,-16.8313 -46.1,46.10265 0.05,0.15416 16.83,62.82359 0.15,0.0446 62.83,16.8319 46.1,-46.1026 -0.05,-0.1548 z m -62.81,-16.2457 62.35,16.7096 16.71,62.3498 -45.65,45.6445 -62.35,-16.7054 -16.7,-62.35412 z"
           fill="#d1d1d1"
           id="path15" />
        <path
           opacity="0.34"
           d="m 1476.03,17.8976 -0.42,-0.1097 -63.09,-16.904055 -46.48,46.483055 0.11,0.42 16.9,63.0831 0.42,0.11 63.09,16.904 46.48,-46.4833 -0.11,-0.42 z m -63.05,-15.34711 61.83,16.56681 16.57,61.8308 -45.27,45.2639 -61.83,-16.567 -16.57,-61.8305 z"
           fill="#1814e5"
           id="path16" />
        <path
           d="m 1247.67,-71.5755 -0.15,-0.0438 -62.82,-16.8263 -46.1,46.1026 0.04,0.1549 16.83,62.8236 0.16,0.0438 62.82,16.832 46.1,-46.10267 -0.04,-0.15416 z m -62.81,-16.2408 62.36,16.7047 16.71,62.35549 -45.65,45.64441 -62.35,-16.711 -16.71,-62.3492 z"
           fill="#d1d1d1"
           id="path17" />
        <path
           d="m 1241.77,13.7871 -0.16,-0.0439 -62.82,-16.83187 -46.1,46.10267 0.04,0.1541 16.83,62.8239 0.16,0.044 62.82,16.832 46.1,-46.1024 -0.04,-0.1542 z m -62.81,-16.25215 62.35,16.70395 16.71,62.3555 -45.65,45.6446 -62.34,-16.71 -16.71,-62.3496 z"
           fill="#d1d1d1"
           id="path18" />
        <path
           d="m 1304.83,30.1771 -0.41,-0.1102 -63.09,-16.9041 -46.48,46.4837 0.11,0.4194 16.9,63.0831 0.42,0.111 63.08,16.903 46.49,-46.4834 -0.11,-0.4193 z m -63.05,-15.3414 61.83,16.5661 16.57,61.8316 -45.27,45.2636 -61.83,-16.568 -16.56,-61.8299 z"
           fill="#d1d1d1"
           id="path19" />
        <path
           d="m 1314.84,179.08 -0.15,-0.043 -62.82,-16.832 -46.11,46.102 0.05,0.154 16.83,62.824 62.98,16.877 46.1,-46.103 -0.04,-0.155 z m -62.8,-16.252 62.35,16.71 16.71,62.35 -45.65,45.644 -62.35,-16.705 -16.71,-62.354 z"
           fill="#d1d1d1"
           id="path20" />
        <path
           d="m 1298.06,116.405 -0.15,-0.045 -62.83,-16.8312 -46.1,46.1022 0.05,0.155 16.83,62.824 0.15,0.044 62.83,16.832 46.1,-46.103 -0.04,-0.154 z m -62.81,-16.247 62.35,16.71 16.71,62.35 -45.64,45.644 -62.36,-16.705 -16.7,-62.354 z"
           fill="#d1d1d1"
           id="path21" />
        <path
           d="m 1235.39,99.6235 -0.16,-0.0446 -62.82,-16.8319 -46.1,46.103 0.04,0.154 16.83,62.824 62.98,16.876 46.1,-46.103 -0.04,-0.154 z m -62.81,-16.2529 62.35,16.7104 16.71,62.349 -45.64,45.645 -62.36,-16.705 -16.7,-62.355 z"
           fill="#d1d1d1"
           id="path22" />
        <path
           d="m 1435.68,-21.2069 -0.16,-0.0445 -62.82,-16.8313 -46.11,46.10196 0.05,0.15485 16.83,62.82429 0.15,0.0439 62.83,16.8313 46.1,-46.102 -0.04,-0.1549 z m -62.81,-16.2521 62.35,16.7047 16.71,62.3548 -45.65,45.6444 -62.35,-16.7047 -16.71,-62.35476 z"
           fill="#d1d1d1"
           id="path23" />
        <path
           d="m 1396.2,-61.1888 -0.15,-0.0445 -62.83,-16.832 -46.1,46.1026 0.04,0.1549 16.84,62.8236 0.15,0.0439 62.82,16.8319 46.11,-46.10262 -0.05,-0.15416 z m -62.81,-16.2472 62.35,16.7047 16.71,62.35481 -45.65,45.64449 -62.35,-16.7104 -16.71,-62.3491 z"
           fill="#d1d1d1"
           id="path24" />
        <path
           d="m 1446.56,126.825 -0.16,-0.044 -62.82,-16.832 -46.1,46.102 0.04,0.155 16.83,62.824 0.16,0.044 62.82,16.834 46.11,-46.102 -0.05,-0.154 z m -62.82,-16.247 62.35,16.71 16.71,62.347 -45.64,45.644 -62.35,-16.702 -16.71,-62.354 z"
           fill="#d1d1d1"
           id="path25" />
        <path
           d="m 1429.77,64.1537 -0.15,-0.0438 -62.83,-16.8313 -46.1,46.102 0.04,0.1548 16.84,62.8236 0.15,0.045 62.83,16.831 46.1,-46.102 -0.05,-0.155 z m -62.81,-16.2514 62.36,16.704 16.7,62.3557 -45.64,45.644 -62.36,-16.705 -16.7,-62.3543 z"
           fill="#d1d1d1"
           id="path26" />
        <path
           d="m 1434.28,298.012 -0.15,-0.044 -62.83,-16.835 -46.1,46.102 0.04,0.154 16.84,62.828 0.15,0.044 62.83,16.834 46.1,-46.101 -0.05,-0.162 z m -62.8,-16.25 62.35,16.702 16.7,62.353 -45.64,45.644 -62.35,-16.702 -16.71,-62.352 z"
           fill="#d1d1d1"
           id="path27" />
        <path
           d="m 1526.03,206.264 -0.15,-0.043 -62.83,-16.835 -46.1,46.102 0.04,0.154 16.84,62.828 0.15,0.044 62.83,16.834 46.1,-46.102 -0.05,-0.161 z m -62.8,-16.249 62.34,16.708 16.71,62.347 -45.64,45.644 -62.36,-16.702 -16.7,-62.352 z"
           fill="#d1d1d1"
           id="path28" />
        <path
           opacity="0.3"
           d="m 1559.99,331.224 -0.43,-0.114 -63.08,-16.904 -46.48,46.484 0.11,0.422 16.91,63.084 0.41,0.108 63.08,16.904 46.49,-46.484 -0.11,-0.416 z m -63.06,-15.35 61.84,16.57 16.56,61.827 -45.26,45.263 -61.83,-16.562 -16.57,-61.835 z"
           fill="#1814e5"
           id="path29" />
        <path
           d="m 1451.07,360.673 -0.15,-0.044 -62.82,-16.828 -46.1,46.103 0.04,0.154 16.83,62.82 62.98,16.879 46.1,-46.102 -0.04,-0.155 z m -62.81,-16.244 62.36,16.702 16.71,62.36 -45.65,45.644 -62.36,-16.71 -16.7,-62.352 z"
           fill="#d1d1d1"
           id="path30" />
        <path
           d="m 1421.99,469.222 -62.98,-16.879 -46.1,46.102 0.04,0.155 16.83,62.827 62.98,16.872 46.1,-46.103 -0.04,-0.154 z m -62.81,-16.244 62.35,16.702 16.7,62.352 -45.64,45.645 -62.35,-16.703 -16.7,-62.352 z"
           fill="#d1d1d1"
           id="path31" />
        <path
           d="m 1405.2,406.543 -0.15,-0.044 -62.82,-16.828 -46.1,46.103 0.04,0.154 16.83,62.82 62.98,16.879 46.1,-46.102 -0.04,-0.154 z m -62.81,-16.244 62.35,16.707 16.71,62.355 -45.64,45.644 -62.36,-16.709 -16.7,-62.353 z"
           fill="#d1d1d1"
           id="path32" />
        <path
           d="m 1509.22,143.621 -0.16,-0.051 -62.82,-16.828 -46.1,46.102 0.04,0.155 16.84,62.827 0.15,0.044 62.82,16.828 46.11,-46.103 -0.05,-0.154 z m -62.81,-16.256 62.36,16.709 16.7,62.352 -45.64,45.644 -62.35,-16.702 -16.71,-62.358 z"
           fill="#d1d1d1"
           id="path33" />
        <path
           d="m 1440.43,212.411 -0.16,-0.051 -62.82,-16.828 -46.1,46.102 0.04,0.154 16.84,62.828 0.15,0.044 62.82,16.828 46.11,-46.102 -0.05,-0.155 z m -62.81,-16.25 62.36,16.708 16.7,62.352 -45.65,45.644 -62.35,-16.702 -16.71,-62.358 z"
           fill="#d1d1d1"
           id="path34" />
        <path
           d="m 1159.01,235.724 c 1.64,1.642 1.64,4.306 0,5.949 -1.64,1.643 -4.31,1.642 -5.95,0 -1.64,-1.643 -1.64,-4.307 0,-5.95 1.64,-1.642 4.31,-1.642 5.95,10e-4 z"
           fill="#c5c8cd"
           id="path35" />
        <path
           d="m 1420.22,232.612 c 1.65,1.647 1.64,4.309 0,5.952 -1.64,1.642 -4.3,1.645 -5.95,-0.002 -1.64,-1.641 -1.64,-4.303 0.01,-5.945 1.64,-1.643 4.3,-1.646 5.94,-0.005 z"
           fill="#c5c8cd"
           id="path36" />
      </g>
    </mask>
    <path
       opacity="0.7"
       d="m 1036.56,593.463 c 0,-0.884 0.2,-1.677 0.6,-2.379 0.4,-0.711 0.94,-1.265 1.62,-1.664 0.7,-0.399 1.46,-0.598 2.3,-0.598 0.99,0 1.85,0.238 2.59,0.715 0.74,0.477 1.27,1.153 1.61,2.028 h -1.41 c -0.26,-0.546 -0.62,-0.966 -1.1,-1.261 -0.46,-0.295 -1.03,-0.442 -1.69,-0.442 -0.63,0 -1.2,0.147 -1.7,0.442 -0.5,0.295 -0.9,0.715 -1.18,1.261 -0.29,0.537 -0.43,1.17 -0.43,1.898 0,0.719 0.14,1.352 0.43,1.898 0.28,0.537 0.68,0.953 1.18,1.248 0.5,0.295 1.07,0.442 1.7,0.442 0.66,0 1.23,-0.143 1.69,-0.429 0.48,-0.295 0.84,-0.715 1.1,-1.261 h 1.41 c -0.34,0.867 -0.87,1.538 -1.61,2.015 -0.74,0.468 -1.6,0.702 -2.59,0.702 -0.84,0 -1.6,-0.195 -2.3,-0.585 -0.68,-0.399 -1.22,-0.949 -1.62,-1.651 -0.4,-0.702 -0.6,-1.495 -0.6,-2.379 z m 11.67,-1.43 c 0.2,-0.407 0.5,-0.724 0.88,-0.949 0.39,-0.225 0.86,-0.338 1.42,-0.338 v 1.222 h -0.32 c -1.32,0 -1.98,0.719 -1.98,2.158 V 598 h -1.19 v -7.124 h 1.19 z m 10.16,2.132 c 0,0.225 -0.01,0.464 -0.04,0.715 h -5.69 c 0.04,0.702 0.28,1.252 0.71,1.651 0.45,0.39 0.98,0.585 1.6,0.585 0.51,0 0.94,-0.117 1.28,-0.351 0.34,-0.243 0.59,-0.563 0.73,-0.962 h 1.27 c -0.19,0.685 -0.57,1.244 -1.14,1.677 -0.58,0.425 -1.29,0.637 -2.14,0.637 -0.67,0 -1.28,-0.152 -1.82,-0.455 -0.53,-0.303 -0.94,-0.732 -1.24,-1.287 -0.31,-0.563 -0.46,-1.213 -0.46,-1.95 0,-0.737 0.15,-1.382 0.44,-1.937 0.3,-0.555 0.71,-0.979 1.24,-1.274 0.53,-0.303 1.15,-0.455 1.84,-0.455 0.68,0 1.28,0.147 1.8,0.442 0.52,0.295 0.92,0.702 1.19,1.222 0.29,0.511 0.43,1.092 0.43,1.742 z m -1.22,-0.247 c 0,-0.451 -0.1,-0.836 -0.3,-1.157 -0.2,-0.329 -0.47,-0.576 -0.82,-0.741 -0.34,-0.173 -0.71,-0.26 -1.13,-0.26 -0.6,0 -1.11,0.191 -1.53,0.572 -0.42,0.381 -0.66,0.91 -0.72,1.586 z m 2.34,0.494 c 0,-0.728 0.15,-1.365 0.44,-1.911 0.3,-0.555 0.7,-0.984 1.21,-1.287 0.52,-0.303 1.1,-0.455 1.73,-0.455 0.63,0 1.17,0.134 1.63,0.403 0.46,0.269 0.8,0.607 1.02,1.014 v -1.3 h 1.2 V 598 h -1.2 v -1.326 c -0.23,0.416 -0.58,0.763 -1.05,1.04 -0.46,0.269 -1,0.403 -1.61,0.403 -0.63,0 -1.21,-0.156 -1.72,-0.468 -0.51,-0.312 -0.91,-0.75 -1.21,-1.313 -0.29,-0.563 -0.44,-1.205 -0.44,-1.924 z m 6.03,0.013 c 0,-0.537 -0.1,-1.005 -0.32,-1.404 -0.22,-0.399 -0.51,-0.702 -0.88,-0.91 -0.37,-0.217 -0.77,-0.325 -1.21,-0.325 -0.45,0 -0.85,0.104 -1.21,0.312 -0.37,0.208 -0.66,0.511 -0.87,0.91 -0.22,0.399 -0.33,0.867 -0.33,1.404 0,0.546 0.11,1.023 0.33,1.43 0.21,0.399 0.5,0.706 0.87,0.923 0.36,0.208 0.76,0.312 1.21,0.312 0.44,0 0.84,-0.104 1.21,-0.312 0.37,-0.217 0.66,-0.524 0.88,-0.923 0.22,-0.407 0.32,-0.88 0.32,-1.417 z m 4.38,-2.392 c 0.21,-0.407 0.5,-0.724 0.89,-0.949 0.39,-0.225 0.86,-0.338 1.41,-0.338 v 1.222 h -0.31 c -1.32,0 -1.99,0.719 -1.99,2.158 V 598 h -1.18 v -7.124 h 1.18 z m 6.69,1.43 c 0,-0.884 0.2,-1.677 0.6,-2.379 0.4,-0.711 0.94,-1.265 1.63,-1.664 0.69,-0.399 1.46,-0.598 2.3,-0.598 0.98,0 1.85,0.238 2.58,0.715 0.74,0.477 1.28,1.153 1.62,2.028 h -1.42 c -0.25,-0.546 -0.62,-0.966 -1.09,-1.261 -0.47,-0.295 -1.03,-0.442 -1.69,-0.442 -0.64,0 -1.2,0.147 -1.71,0.442 -0.5,0.295 -0.89,0.715 -1.18,1.261 -0.29,0.537 -0.43,1.17 -0.43,1.898 0,0.719 0.14,1.352 0.43,1.898 0.29,0.537 0.68,0.953 1.18,1.248 0.51,0.295 1.07,0.442 1.71,0.442 0.66,0 1.22,-0.143 1.69,-0.429 0.47,-0.295 0.84,-0.715 1.09,-1.261 h 1.42 c -0.34,0.867 -0.88,1.538 -1.62,2.015 -0.73,0.468 -1.6,0.702 -2.58,0.702 -0.84,0 -1.61,-0.195 -2.3,-0.585 -0.69,-0.399 -1.23,-0.949 -1.63,-1.651 -0.4,-0.702 -0.6,-1.495 -0.6,-2.379 z m 16.8,-2.587 V 598 h -1.18 v -1.053 c -0.22,0.364 -0.54,0.65 -0.95,0.858 -0.4,0.199 -0.84,0.299 -1.32,0.299 -0.56,0 -1.06,-0.113 -1.5,-0.338 -0.44,-0.234 -0.79,-0.581 -1.05,-1.04 -0.25,-0.459 -0.38,-1.018 -0.38,-1.677 v -4.173 h 1.17 v 4.017 c 0,0.702 0.18,1.244 0.53,1.625 0.36,0.373 0.85,0.559 1.46,0.559 0.63,0 1.13,-0.195 1.5,-0.585 0.36,-0.39 0.54,-0.958 0.54,-1.703 v -3.913 z m 8.5,3.289 c 0,0.225 -0.01,0.464 -0.04,0.715 h -5.69 c 0.04,0.702 0.28,1.252 0.71,1.651 0.45,0.39 0.98,0.585 1.6,0.585 0.51,0 0.94,-0.117 1.28,-0.351 0.34,-0.243 0.59,-0.563 0.73,-0.962 h 1.27 c -0.19,0.685 -0.57,1.244 -1.14,1.677 -0.58,0.425 -1.29,0.637 -2.14,0.637 -0.67,0 -1.28,-0.152 -1.82,-0.455 -0.53,-0.303 -0.94,-0.732 -1.24,-1.287 -0.31,-0.563 -0.46,-1.213 -0.46,-1.95 0,-0.737 0.15,-1.382 0.44,-1.937 0.3,-0.555 0.71,-0.979 1.24,-1.274 0.53,-0.303 1.15,-0.455 1.84,-0.455 0.68,0 1.28,0.147 1.8,0.442 0.52,0.295 0.92,0.702 1.19,1.222 0.29,0.511 0.43,1.092 0.43,1.742 z m -1.22,-0.247 c 0,-0.451 -0.1,-0.836 -0.3,-1.157 -0.2,-0.329 -0.47,-0.576 -0.82,-0.741 -0.34,-0.173 -0.71,-0.26 -1.13,-0.26 -0.6,0 -1.11,0.191 -1.53,0.572 -0.42,0.381 -0.66,0.91 -0.72,1.586 z m 6.25,-3.172 c 0.87,0 1.57,0.264 2.11,0.793 0.54,0.52 0.81,1.274 0.81,2.262 V 598 h -1.17 v -4.03 c 0,-0.711 -0.18,-1.252 -0.54,-1.625 -0.35,-0.381 -0.84,-0.572 -1.45,-0.572 -0.63,0 -1.12,0.195 -1.5,0.585 -0.36,0.39 -0.54,0.958 -0.54,1.703 V 598 h -1.19 v -7.124 h 1.19 v 1.014 c 0.23,-0.364 0.55,-0.646 0.95,-0.845 0.4,-0.199 0.85,-0.299 1.33,-0.299 z m 6.29,1.105 v 4.199 c 0,0.347 0.08,0.594 0.22,0.741 0.15,0.139 0.41,0.208 0.77,0.208 h 0.87 V 598 h -1.06 c -0.66,0 -1.16,-0.152 -1.49,-0.455 -0.33,-0.303 -0.49,-0.802 -0.49,-1.495 v -4.199 h -0.92 v -0.975 h 0.92 v -1.794 h 1.18 v 1.794 h 1.86 v 0.975 z m 2.85,2.561 c 0,-0.728 0.15,-1.365 0.44,-1.911 0.3,-0.555 0.7,-0.984 1.21,-1.287 0.52,-0.303 1.1,-0.455 1.73,-0.455 0.63,0 1.17,0.134 1.63,0.403 0.46,0.269 0.8,0.607 1.02,1.014 v -1.3 h 1.2 V 598 h -1.2 v -1.326 c -0.23,0.416 -0.58,0.763 -1.05,1.04 -0.46,0.269 -1,0.403 -1.61,0.403 -0.63,0 -1.21,-0.156 -1.72,-0.468 -0.51,-0.312 -0.91,-0.75 -1.21,-1.313 -0.29,-0.563 -0.44,-1.205 -0.44,-1.924 z m 6.03,0.013 c 0,-0.537 -0.1,-1.005 -0.32,-1.404 -0.22,-0.399 -0.51,-0.702 -0.88,-0.91 -0.37,-0.217 -0.77,-0.325 -1.21,-0.325 -0.45,0 -0.85,0.104 -1.21,0.312 -0.37,0.208 -0.66,0.511 -0.87,0.91 -0.22,0.399 -0.33,0.867 -0.33,1.404 0,0.546 0.11,1.023 0.33,1.43 0.21,0.399 0.5,0.706 0.87,0.923 0.36,0.208 0.76,0.312 1.21,0.312 0.44,0 0.84,-0.104 1.21,-0.312 0.37,-0.217 0.66,-0.524 0.88,-0.923 0.22,-0.407 0.32,-0.88 0.32,-1.417 z"
       fill="#333333"
       id="path40" />
    <g
       opacity="0.3"
       id="g43">
      <path
         d="m 972,450 c 0,-1.103 -0.897,-2 -2,-2 h -1 v -3 c 0,-2.757 -2.243,-5 -5,-5 -2.757,0 -5,2.243 -5,5 v 3 h -1 c -1.103,0 -2,0.897 -2,2 v 8 c 0,1.103 0.897,2 2,2 h 12 c 1.103,0 2,-0.897 2,-2 z m -11,-5 c 0,-1.654 1.346,-3 3,-3 1.654,0 3,1.346 3,3 v 3 h -6 z"
         fill="#333333"
         id="path43" />
    </g>
    <path
       d="m 1132.91,615.864 h -7.68 L 1119.91,607 v -1.773 h 1.18 l 2.36,1.773 0.6,-8.273 0.59,-1.182 1.77,1.182 v 4.137 h 1.18 l 2.96,0.591 2.36,1.181 1.18,1.182 z"
       fill="#ffffff"
       id="path53" />
  </g>
  <defs
     id="defs65">
    <linearGradient
       id="paint0_linear_412_486"
       x1="360"
       y1="0"
       x2="360"
       y2="900"
       gradientUnits="userSpaceOnUse">
      <stop
         stop-color="#0162DD"
         id="stop62" />
      <stop
         offset="0.847875"
         stop-color="#02298A"
         id="stop63" />
      <stop
         offset="1"
         stop-color="#021B79"
         id="stop64" />
    </linearGradient>
    <clipPath
       id="clip0_412_486">
      <rect
         width="1440"
         height="900"
         fill="#ffffff"
         id="rect64"
         x="0"
         y="0" />
    </clipPath>
  </defs>
</svg>
