<svg width="421" height="24" viewBox="0 0 421 24" fill="none" xmlns="http://www.w3.org/2000/svg">
<path d="M147.99 12.1818C147.99 13.4091 147.769 14.4697 147.325 15.3636C146.882 16.2576 146.274 16.947 145.502 17.4318C144.729 17.9167 143.846 18.1591 142.854 18.1591C141.861 18.1591 140.979 17.9167 140.206 17.4318C139.433 16.947 138.825 16.2576 138.382 15.3636C137.939 14.4697 137.717 13.4091 137.717 12.1818C137.717 10.9545 137.939 9.89394 138.382 9C138.825 8.10606 139.433 7.41667 140.206 6.93182C140.979 6.44697 141.861 6.20455 142.854 6.20455C143.846 6.20455 144.729 6.44697 145.502 6.93182C146.274 7.41667 146.882 8.10606 147.325 9C147.769 9.89394 147.99 10.9545 147.99 12.1818ZM146.627 12.1818C146.627 11.1742 146.458 10.3239 146.121 9.63068C145.788 8.9375 145.335 8.41288 144.763 8.05682C144.195 7.70076 143.558 7.52273 142.854 7.52273C142.149 7.52273 141.511 7.70076 140.939 8.05682C140.371 8.41288 139.918 8.9375 139.581 9.63068C139.248 10.3239 139.081 11.1742 139.081 12.1818C139.081 13.1894 139.248 14.0398 139.581 14.733C139.918 15.4261 140.371 15.9508 140.939 16.3068C141.511 16.6629 142.149 16.8409 142.854 16.8409C143.558 16.8409 144.195 16.6629 144.763 16.3068C145.335 15.9508 145.788 15.4261 146.121 14.733C146.458 14.0398 146.627 13.1894 146.627 12.1818ZM154.678 21.2727V9.27273H155.973V10.6591H156.132C156.231 10.5076 156.367 10.3144 156.541 10.0795C156.719 9.84091 156.973 9.62879 157.303 9.44318C157.636 9.25379 158.087 9.15909 158.655 9.15909C159.39 9.15909 160.038 9.3428 160.598 9.71023C161.159 10.0777 161.596 10.5985 161.911 11.2727C162.225 11.947 162.382 12.7424 162.382 13.6591C162.382 14.5833 162.225 15.3845 161.911 16.0625C161.596 16.7367 161.161 17.2595 160.604 17.6307C160.047 17.9981 159.405 18.1818 158.678 18.1818C158.117 18.1818 157.668 18.089 157.331 17.9034C156.994 17.714 156.735 17.5 156.553 17.2614C156.371 17.0189 156.231 16.8182 156.132 16.6591H156.019V21.2727H154.678ZM155.996 13.6364C155.996 14.2955 156.092 14.8769 156.286 15.3807C156.479 15.8807 156.761 16.2727 157.132 16.5568C157.503 16.8371 157.958 16.9773 158.496 16.9773C159.057 16.9773 159.524 16.8295 159.899 16.5341C160.278 16.2348 160.562 15.8333 160.752 15.3295C160.945 14.822 161.041 14.2576 161.041 13.6364C161.041 13.0227 160.947 12.4697 160.757 11.9773C160.572 11.4811 160.289 11.089 159.911 10.8011C159.536 10.5095 159.064 10.3636 158.496 10.3636C157.95 10.3636 157.492 10.5019 157.121 10.7784C156.75 11.0511 156.469 11.4337 156.28 11.9261C156.091 12.4148 155.996 12.9848 155.996 13.6364ZM166.996 18.2045C166.443 18.2045 165.941 18.1004 165.49 17.892C165.039 17.6799 164.682 17.375 164.416 16.9773C164.151 16.5758 164.019 16.0909 164.019 15.5227C164.019 15.0227 164.117 14.6174 164.314 14.3068C164.511 13.9924 164.774 13.7462 165.104 13.5682C165.433 13.3902 165.797 13.2576 166.195 13.1705C166.596 13.0795 167 13.0076 167.405 12.9545C167.935 12.8864 168.365 12.8352 168.695 12.8011C169.028 12.7633 169.271 12.7008 169.422 12.6136C169.577 12.5265 169.655 12.375 169.655 12.1591V12.1136C169.655 11.553 169.502 11.1174 169.195 10.8068C168.892 10.4962 168.432 10.3409 167.814 10.3409C167.174 10.3409 166.672 10.4811 166.308 10.7614C165.945 11.0417 165.689 11.3409 165.541 11.6591L164.269 11.2045C164.496 10.6742 164.799 10.2614 165.178 9.96591C165.56 9.66667 165.977 9.45833 166.428 9.34091C166.882 9.2197 167.329 9.15909 167.769 9.15909C168.049 9.15909 168.371 9.19318 168.735 9.26136C169.102 9.32576 169.456 9.46023 169.797 9.66477C170.142 9.86932 170.428 10.178 170.655 10.5909C170.882 11.0038 170.996 11.5568 170.996 12.25V18H169.655V16.8182H169.587C169.496 17.0076 169.344 17.2102 169.132 17.4261C168.92 17.642 168.638 17.8258 168.286 17.9773C167.933 18.1288 167.503 18.2045 166.996 18.2045ZM167.2 17C167.731 17 168.178 16.8958 168.541 16.6875C168.909 16.4792 169.185 16.2102 169.371 15.8807C169.56 15.5511 169.655 15.2045 169.655 14.8409V13.6136C169.598 13.6818 169.473 13.7443 169.28 13.8011C169.091 13.8542 168.871 13.9015 168.621 13.9432C168.375 13.9811 168.134 14.0152 167.899 14.0455C167.668 14.072 167.481 14.0947 167.337 14.1136C166.988 14.1591 166.663 14.233 166.36 14.3352C166.06 14.4337 165.818 14.5833 165.632 14.7841C165.45 14.9811 165.36 15.25 165.36 15.5909C165.36 16.0568 165.532 16.4091 165.877 16.6477C166.225 16.8826 166.666 17 167.2 17ZM176.966 21.4545C176.318 21.4545 175.762 21.3712 175.296 21.2045C174.83 21.0417 174.441 20.8258 174.131 20.5568C173.824 20.2917 173.58 20.0076 173.398 19.7045L174.466 18.9545C174.587 19.1136 174.741 19.2955 174.926 19.5C175.112 19.7083 175.366 19.8883 175.688 20.0398C176.013 20.1951 176.44 20.2727 176.966 20.2727C177.671 20.2727 178.252 20.1023 178.71 19.7614C179.169 19.4205 179.398 18.8864 179.398 18.1591V16.3864H179.284C179.186 16.5455 179.046 16.7424 178.864 16.9773C178.686 17.2083 178.428 17.4148 178.091 17.5966C177.758 17.7746 177.307 17.8636 176.739 17.8636C176.034 17.8636 175.402 17.697 174.841 17.3636C174.284 17.0303 173.843 16.5455 173.517 15.9091C173.195 15.2727 173.034 14.5 173.034 13.5909C173.034 12.697 173.191 11.9186 173.506 11.2557C173.82 10.589 174.258 10.0739 174.818 9.71023C175.379 9.3428 176.027 9.15909 176.762 9.15909C177.33 9.15909 177.78 9.25379 178.114 9.44318C178.451 9.62879 178.708 9.84091 178.887 10.0795C179.068 10.3144 179.208 10.5076 179.307 10.6591H179.443V9.27273H180.739V18.25C180.739 19 180.568 19.6098 180.227 20.0795C179.89 20.553 179.436 20.8996 178.864 21.1193C178.296 21.3428 177.663 21.4545 176.966 21.4545ZM176.921 16.6591C177.458 16.6591 177.913 16.536 178.284 16.2898C178.655 16.0436 178.938 15.6894 179.131 15.2273C179.324 14.7652 179.421 14.2121 179.421 13.5682C179.421 12.9394 179.326 12.3845 179.137 11.9034C178.947 11.4223 178.667 11.0455 178.296 10.7727C177.924 10.5 177.466 10.3636 176.921 10.3636C176.352 10.3636 175.879 10.5076 175.5 10.7955C175.125 11.0833 174.843 11.4697 174.654 11.9545C174.468 12.4394 174.375 12.9773 174.375 13.5682C174.375 14.1742 174.47 14.7102 174.659 15.1761C174.852 15.6383 175.137 16.0019 175.512 16.267C175.89 16.5284 176.36 16.6591 176.921 16.6591ZM185.762 18.2045C185.208 18.2045 184.707 18.1004 184.256 17.892C183.805 17.6799 183.447 17.375 183.182 16.9773C182.917 16.5758 182.784 16.0909 182.784 15.5227C182.784 15.0227 182.883 14.6174 183.08 14.3068C183.277 13.9924 183.54 13.7462 183.869 13.5682C184.199 13.3902 184.563 13.2576 184.96 13.1705C185.362 13.0795 185.765 13.0076 186.171 12.9545C186.701 12.8864 187.131 12.8352 187.46 12.8011C187.794 12.7633 188.036 12.7008 188.188 12.6136C188.343 12.5265 188.421 12.375 188.421 12.1591V12.1136C188.421 11.553 188.267 11.1174 187.96 10.8068C187.657 10.4962 187.197 10.3409 186.58 10.3409C185.94 10.3409 185.438 10.4811 185.074 10.7614C184.71 11.0417 184.455 11.3409 184.307 11.6591L183.034 11.2045C183.262 10.6742 183.565 10.2614 183.943 9.96591C184.326 9.66667 184.743 9.45833 185.193 9.34091C185.648 9.2197 186.095 9.15909 186.534 9.15909C186.815 9.15909 187.137 9.19318 187.5 9.26136C187.868 9.32576 188.222 9.46023 188.563 9.66477C188.907 9.86932 189.193 10.178 189.421 10.5909C189.648 11.0038 189.762 11.5568 189.762 12.25V18H188.421V16.8182H188.352C188.262 17.0076 188.11 17.2102 187.898 17.4261C187.686 17.642 187.404 17.8258 187.051 17.9773C186.699 18.1288 186.269 18.2045 185.762 18.2045ZM185.966 17C186.496 17 186.943 16.8958 187.307 16.6875C187.674 16.4792 187.951 16.2102 188.137 15.8807C188.326 15.5511 188.421 15.2045 188.421 14.8409V13.6136C188.364 13.6818 188.239 13.7443 188.046 13.8011C187.856 13.8542 187.637 13.9015 187.387 13.9432C187.14 13.9811 186.9 14.0152 186.665 14.0455C186.434 14.072 186.246 14.0947 186.102 14.1136C185.754 14.1591 185.428 14.233 185.125 14.3352C184.826 14.4337 184.583 14.5833 184.398 14.7841C184.216 14.9811 184.125 15.25 184.125 15.5909C184.125 16.0568 184.298 16.4091 184.642 16.6477C184.991 16.8826 185.432 17 185.966 17ZM192.209 18V9.27273H193.504V10.5909H193.595C193.754 10.1591 194.042 9.80871 194.459 9.53977C194.876 9.27083 195.345 9.13636 195.868 9.13636C195.967 9.13636 196.09 9.13826 196.237 9.14205C196.385 9.14583 196.497 9.15152 196.573 9.15909V10.5227C196.527 10.5114 196.423 10.4943 196.26 10.4716C196.101 10.4451 195.932 10.4318 195.754 10.4318C195.33 10.4318 194.951 10.5208 194.618 10.6989C194.289 10.8731 194.027 11.1155 193.834 11.4261C193.645 11.733 193.55 12.0833 193.55 12.4773V18H192.209ZM206.208 18.1818C205.389 18.1818 204.685 17.9886 204.094 17.6023C203.503 17.2159 203.048 16.6837 202.73 16.0057C202.412 15.3277 202.253 14.553 202.253 13.6818C202.253 12.7955 202.416 12.0133 202.742 11.3352C203.071 10.6534 203.53 10.1212 204.117 9.73864C204.708 9.35227 205.397 9.15909 206.185 9.15909C206.798 9.15909 207.351 9.27273 207.844 9.5C208.336 9.72727 208.74 10.0455 209.054 10.4545C209.369 10.8636 209.564 11.3409 209.639 11.8864H208.298C208.196 11.4886 207.969 11.1364 207.617 10.8295C207.268 10.5189 206.798 10.3636 206.208 10.3636C205.685 10.3636 205.226 10.5 204.833 10.7727C204.442 11.0417 204.137 11.4223 203.918 11.9148C203.702 12.4034 203.594 12.9773 203.594 13.6364C203.594 14.3106 203.7 14.8977 203.912 15.3977C204.128 15.8977 204.431 16.286 204.821 16.5625C205.215 16.839 205.677 16.9773 206.208 16.9773C206.556 16.9773 206.872 16.9167 207.156 16.7955C207.44 16.6742 207.681 16.5 207.878 16.2727C208.075 16.0455 208.215 15.7727 208.298 15.4545H209.639C209.564 15.9697 209.376 16.4337 209.077 16.8466C208.781 17.2557 208.389 17.5814 207.901 17.8239C207.416 18.0625 206.851 18.1818 206.208 18.1818ZM215.145 18.1818C214.357 18.1818 213.666 17.9943 213.071 17.6193C212.48 17.2443 212.018 16.7197 211.685 16.0455C211.355 15.3712 211.19 14.5833 211.19 13.6818C211.19 12.7727 211.355 11.9792 211.685 11.3011C212.018 10.6231 212.48 10.0966 213.071 9.72159C213.666 9.34659 214.357 9.15909 215.145 9.15909C215.933 9.15909 216.622 9.34659 217.213 9.72159C217.808 10.0966 218.27 10.6231 218.6 11.3011C218.933 11.9792 219.1 12.7727 219.1 13.6818C219.1 14.5833 218.933 15.3712 218.6 16.0455C218.27 16.7197 217.808 17.2443 217.213 17.6193C216.622 17.9943 215.933 18.1818 215.145 18.1818ZM215.145 16.9773C215.744 16.9773 216.236 16.8239 216.622 16.517C217.009 16.2102 217.295 15.8068 217.48 15.3068C217.666 14.8068 217.759 14.2652 217.759 13.6818C217.759 13.0985 217.666 12.5549 217.48 12.0511C217.295 11.5473 217.009 11.1402 216.622 10.8295C216.236 10.5189 215.744 10.3636 215.145 10.3636C214.547 10.3636 214.054 10.5189 213.668 10.8295C213.281 11.1402 212.995 11.5473 212.81 12.0511C212.624 12.5549 212.531 13.0985 212.531 13.6818C212.531 14.2652 212.624 14.8068 212.81 15.3068C212.995 15.8068 213.281 16.2102 213.668 16.517C214.054 16.8239 214.547 16.9773 215.145 16.9773ZM222.487 12.75V18H221.146V9.27273H222.442V10.6364H222.556C222.76 10.1932 223.071 9.83712 223.487 9.56818C223.904 9.29545 224.442 9.15909 225.101 9.15909C225.692 9.15909 226.209 9.2803 226.652 9.52273C227.095 9.76136 227.44 10.125 227.686 10.6136C227.932 11.0985 228.056 11.7121 228.056 12.4545V18H226.715V12.5455C226.715 11.8598 226.537 11.3258 226.181 10.9432C225.824 10.5568 225.336 10.3636 224.715 10.3636C224.287 10.3636 223.904 10.4564 223.567 10.642C223.234 10.8277 222.97 11.0985 222.777 11.4545C222.584 11.8106 222.487 12.2424 222.487 12.75ZM238.801 9.27273V10.4091H234.279V9.27273H238.801ZM235.597 7.18182H236.938V15.5C236.938 15.8788 236.993 16.1629 237.102 16.3523C237.216 16.5379 237.36 16.6629 237.534 16.7273C237.712 16.7879 237.9 16.8182 238.097 16.8182C238.244 16.8182 238.366 16.8106 238.46 16.7955C238.555 16.7765 238.631 16.7614 238.688 16.75L238.96 17.9545C238.869 17.9886 238.743 18.0227 238.58 18.0568C238.417 18.0947 238.21 18.1136 237.96 18.1136C237.582 18.1136 237.21 18.0322 236.847 17.8693C236.487 17.7064 236.188 17.4583 235.949 17.125C235.714 16.7917 235.597 16.3712 235.597 15.8636V7.18182ZM243.387 18.2045C242.833 18.2045 242.332 18.1004 241.881 17.892C241.43 17.6799 241.072 17.375 240.807 16.9773C240.542 16.5758 240.409 16.0909 240.409 15.5227C240.409 15.0227 240.508 14.6174 240.705 14.3068C240.902 13.9924 241.165 13.7462 241.494 13.5682C241.824 13.3902 242.188 13.2576 242.585 13.1705C242.987 13.0795 243.39 13.0076 243.796 12.9545C244.326 12.8864 244.756 12.8352 245.085 12.8011C245.419 12.7633 245.661 12.7008 245.813 12.6136C245.968 12.5265 246.046 12.375 246.046 12.1591V12.1136C246.046 11.553 245.892 11.1174 245.585 10.8068C245.282 10.4962 244.822 10.3409 244.205 10.3409C243.565 10.3409 243.063 10.4811 242.699 10.7614C242.335 11.0417 242.08 11.3409 241.932 11.6591L240.659 11.2045C240.887 10.6742 241.19 10.2614 241.568 9.96591C241.951 9.66667 242.368 9.45833 242.818 9.34091C243.273 9.2197 243.72 9.15909 244.159 9.15909C244.44 9.15909 244.762 9.19318 245.125 9.26136C245.493 9.32576 245.847 9.46023 246.188 9.66477C246.532 9.86932 246.818 10.178 247.046 10.5909C247.273 11.0038 247.387 11.5568 247.387 12.25V18H246.046V16.8182H245.977C245.887 17.0076 245.735 17.2102 245.523 17.4261C245.311 17.642 245.029 17.8258 244.676 17.9773C244.324 18.1288 243.894 18.2045 243.387 18.2045ZM243.591 17C244.121 17 244.568 16.8958 244.932 16.6875C245.299 16.4792 245.576 16.2102 245.762 15.8807C245.951 15.5511 246.046 15.2045 246.046 14.8409V13.6136C245.989 13.6818 245.864 13.7443 245.671 13.8011C245.481 13.8542 245.262 13.9015 245.012 13.9432C244.765 13.9811 244.525 14.0152 244.29 14.0455C244.059 14.072 243.871 14.0947 243.727 14.1136C243.379 14.1591 243.053 14.233 242.75 14.3352C242.451 14.4337 242.208 14.5833 242.023 14.7841C241.841 14.9811 241.75 15.25 241.75 15.5909C241.75 16.0568 241.923 16.4091 242.267 16.6477C242.616 16.8826 243.057 17 243.591 17ZM249.834 18V9.27273H251.129V10.5909H251.22C251.379 10.1591 251.667 9.80871 252.084 9.53977C252.501 9.27083 252.97 9.13636 253.493 9.13636C253.592 9.13636 253.715 9.13826 253.862 9.14205C254.01 9.14583 254.122 9.15152 254.198 9.15909V10.5227C254.152 10.5114 254.048 10.4943 253.885 10.4716C253.726 10.4451 253.557 10.4318 253.379 10.4318C252.955 10.4318 252.576 10.5208 252.243 10.6989C251.914 10.8731 251.652 11.1155 251.459 11.4261C251.27 11.733 251.175 12.0833 251.175 12.4773V18H249.834ZM255.787 9.27273H257.128V18.6364C257.128 19.1742 257.035 19.6402 256.85 20.0341C256.668 20.428 256.391 20.733 256.02 20.9489C255.653 21.1648 255.189 21.2727 254.628 21.2727C254.583 21.2727 254.537 21.2727 254.492 21.2727C254.446 21.2727 254.401 21.2727 254.355 21.2727V20.0227C254.401 20.0227 254.442 20.0227 254.48 20.0227C254.518 20.0227 254.56 20.0227 254.605 20.0227C255.014 20.0227 255.314 19.9015 255.503 19.6591C255.692 19.4205 255.787 19.0795 255.787 18.6364V9.27273ZM256.446 7.81818C256.185 7.81818 255.959 7.72917 255.77 7.55114C255.584 7.37311 255.492 7.15909 255.492 6.90909C255.492 6.65909 255.584 6.44508 255.77 6.26705C255.959 6.08902 256.185 6 256.446 6C256.708 6 256.931 6.08902 257.117 6.26705C257.306 6.44508 257.401 6.65909 257.401 6.90909C257.401 7.15909 257.306 7.37311 257.117 7.55114C256.931 7.72917 256.708 7.81818 256.446 7.81818ZM263.243 18.1818C262.402 18.1818 261.677 17.9962 261.067 17.625C260.461 17.25 259.993 16.7273 259.664 16.0568C259.338 15.3826 259.175 14.5985 259.175 13.7045C259.175 12.8106 259.338 12.0227 259.664 11.3409C259.993 10.6553 260.451 10.1212 261.039 9.73864C261.629 9.35227 262.319 9.15909 263.107 9.15909C263.561 9.15909 264.01 9.23485 264.453 9.38636C264.896 9.53788 265.3 9.78409 265.664 10.125C266.027 10.4621 266.317 10.9091 266.533 11.4659C266.749 12.0227 266.857 12.7083 266.857 13.5227V14.0909H260.129V12.9318H265.493C265.493 12.4394 265.395 12 265.198 11.6136C265.004 11.2273 264.728 10.9223 264.368 10.6989C264.012 10.4754 263.592 10.3636 263.107 10.3636C262.573 10.3636 262.11 10.4962 261.72 10.7614C261.334 11.0227 261.037 11.3636 260.828 11.7841C260.62 12.2045 260.516 12.6553 260.516 13.1364V13.9091C260.516 14.5682 260.629 15.1269 260.857 15.5852C261.088 16.0398 261.408 16.3864 261.817 16.625C262.226 16.8598 262.701 16.9773 263.243 16.9773C263.595 16.9773 263.914 16.928 264.198 16.8295C264.485 16.7273 264.734 16.5758 264.942 16.375C265.15 16.1705 265.311 15.9167 265.425 15.6136L266.72 15.9773C266.584 16.4167 266.355 16.803 266.033 17.1364C265.711 17.4659 265.313 17.7235 264.84 17.9091C264.366 18.0909 263.834 18.1818 263.243 18.1818ZM272.692 9.27273V10.4091H268.169V9.27273H272.692ZM269.487 7.18182H270.828V15.5C270.828 15.8788 270.883 16.1629 270.993 16.3523C271.107 16.5379 271.251 16.6629 271.425 16.7273C271.603 16.7879 271.79 16.8182 271.987 16.8182C272.135 16.8182 272.256 16.8106 272.351 16.7955C272.446 16.7765 272.521 16.7614 272.578 16.75L272.851 17.9545C272.76 17.9886 272.633 18.0227 272.47 18.0568C272.307 18.0947 272.101 18.1136 271.851 18.1136C271.472 18.1136 271.101 18.0322 270.737 17.8693C270.378 17.7064 270.078 17.4583 269.84 17.125C269.605 16.7917 269.487 16.3712 269.487 15.8636V7.18182ZM277.277 18.2045C276.724 18.2045 276.222 18.1004 275.771 17.892C275.321 17.6799 274.963 17.375 274.698 16.9773C274.432 16.5758 274.3 16.0909 274.3 15.5227C274.3 15.0227 274.398 14.6174 274.595 14.3068C274.792 13.9924 275.056 13.7462 275.385 13.5682C275.715 13.3902 276.078 13.2576 276.476 13.1705C276.878 13.0795 277.281 13.0076 277.686 12.9545C278.217 12.8864 278.646 12.8352 278.976 12.8011C279.309 12.7633 279.552 12.7008 279.703 12.6136C279.859 12.5265 279.936 12.375 279.936 12.1591V12.1136C279.936 11.553 279.783 11.1174 279.476 10.8068C279.173 10.4962 278.713 10.3409 278.095 10.3409C277.455 10.3409 276.953 10.4811 276.59 10.7614C276.226 11.0417 275.97 11.3409 275.823 11.6591L274.55 11.2045C274.777 10.6742 275.08 10.2614 275.459 9.96591C275.842 9.66667 276.258 9.45833 276.709 9.34091C277.164 9.2197 277.61 9.15909 278.05 9.15909C278.33 9.15909 278.652 9.19318 279.016 9.26136C279.383 9.32576 279.737 9.46023 280.078 9.66477C280.423 9.86932 280.709 10.178 280.936 10.5909C281.164 11.0038 281.277 11.5568 281.277 12.25V18H279.936V16.8182H279.868C279.777 17.0076 279.626 17.2102 279.414 17.4261C279.201 17.642 278.919 17.8258 278.567 17.9773C278.215 18.1288 277.785 18.2045 277.277 18.2045ZM277.482 17C278.012 17 278.459 16.8958 278.823 16.6875C279.19 16.4792 279.467 16.2102 279.652 15.8807C279.842 15.5511 279.936 15.2045 279.936 14.8409V13.6136C279.879 13.6818 279.754 13.7443 279.561 13.8011C279.372 13.8542 279.152 13.9015 278.902 13.9432C278.656 13.9811 278.415 14.0152 278.181 14.0455C277.949 14.072 277.762 14.0947 277.618 14.1136C277.27 14.1591 276.944 14.233 276.641 14.3352C276.342 14.4337 276.099 14.5833 275.914 14.7841C275.732 14.9811 275.641 15.25 275.641 15.5909C275.641 16.0568 275.813 16.4091 276.158 16.6477C276.506 16.8826 276.948 17 277.482 17Z" fill="#8792A2"/>
<line y1="11.5" x2="127" y2="11.5" stroke="#3C4257" stroke-opacity="0.12"/>
<line x1="290" y1="11.5" x2="421" y2="11.5" stroke="#3C4257" stroke-opacity="0.12"/>
</svg>
